<?xml version="1.0" encoding="UTF-8"?>
<svg width="1200pt" height="1200pt" version="1.1" viewBox="0 0 1200 1200" xmlns="http://www.w3.org/2000/svg">
 <path d="m878.52 519.21c5.1602 15.168-2.9531 31.645-18.121 36.781-3.0859 1.0547-6.2383 1.5586-9.3477 1.5586-12.059 0-23.34-7.6094-27.445-19.691-4.4766-13.223-16.812-22.094-30.684-22.094s-26.184 8.8672-30.695 22.094c-5.1484 15.168-21.625 23.293-36.793 18.133-15.156-5.1484-23.281-21.625-18.133-36.781 12.492-36.758 46.895-61.441 85.621-61.441 38.715 0.003906 73.129 24.699 85.598 61.441zm-403.96 36.781c-3.0859 1.0547-6.2539 1.5586-9.3242 1.5586-12.109 0-23.352-7.6094-27.469-19.691-4.4883-13.223-16.836-22.094-30.672-22.094-13.859 0-26.207 8.8672-30.707 22.094-5.1602 15.168-21.613 23.293-36.77 18.133-15.191-5.1484-23.305-21.625-18.168-36.781 12.516-36.758 46.906-61.441 85.645-61.441 38.723 0 73.117 24.695 85.598 61.441 5.1484 15.168-2.9531 31.645-18.133 36.781zm235.89 244.01c-26.629 34.824-66.875 54.816-110.45 54.816-43.559 0-83.797-19.992-110.45-54.816-9.7188-12.719-7.2852-30.926 5.4258-40.645 12.719-9.7305 30.938-7.3203 40.656 5.4102 15.574 20.355 39.047 32.031 64.367 32.031s48.781-11.676 64.355-32.027c9.7188-12.742 27.949-15.145 40.656-5.4102 12.746 9.7031 15.156 27.922 5.4375 40.641zm370.34-151.33c0.13281-4.7539 0.22656-9.5273 0.22656-14.305v-68.711c0-4.7773-0.097656-9.5508-0.22656-14.305 26.102 0.875 47.074 22.332 47.074 48.66s-20.977 47.773-47.074 48.66zm-57.77-14.305v-68.711c0-179.62-112.54-333.42-270.8-394.66-3.6953 14.23-10.453 25.547-16.105 35.062-9.4219 15.758-13.094 22.754-9.0586 37.801 3.2539 12.156 11.891 21.887 23.641 26.746 14.832 6.1094 21.887 23.051 15.793 37.859-4.6211 11.195-15.445 17.965-26.832 17.965-3.6836 0-7.4297-0.71875-11.039-2.207-28.645-11.797-49.633-35.629-57.59-65.352-10.547-39.336 4.3789-64.32 15.254-82.57 5.6523-9.457 9.2031-15.758 10.273-22.535-19.68-4.6211-39.875-7.8242-60.504-9.5898-2.6875 18.793-11.148 33-18.012 44.52-9.4062 15.758-13.094 22.754-9.0352 37.812 3.2383 12.145 11.867 21.875 23.641 26.746 14.82 6.1094 21.875 23.051 15.77 37.859-4.6211 11.195-15.434 17.965-26.82 17.965-3.6953 0-7.4141-0.71875-11.039-2.207-28.633-11.797-49.645-35.617-57.59-65.352-10.547-39.336 4.3789-64.309 15.254-82.57 3.7422-6.2539 6.5508-11.125 8.3398-15.672-19.621 1.0781-38.902 3.5039-57.758 7.1875-0.26562 24.445-10.691 41.891-18.84 55.57-9.4062 15.758-13.078 22.754-9.0352 37.801 3.2539 12.156 11.867 21.887 23.664 26.746 14.809 6.1094 21.863 23.051 15.758 37.859-4.6328 11.195-15.434 17.965-26.82 17.965-3.6836 0-7.4297-0.71875-11.039-2.207-28.645-11.797-49.645-35.629-57.602-65.352-10.523-39.336 4.3906-64.32 15.266-82.57 1.7539-2.9297 3.2891-5.5664 4.6562-7.9922-161.95 59.352-277.81 215.06-277.81 397.32v68.711c0 233.26 189.74 423 422.99 423 233.27 0.046876 423.04-189.71 423.04-422.95zm-950.89-34.367c0-26.316 21-47.773 47.113-48.66-0.15625 4.7539-0.23828 9.5273-0.23828 14.305v68.711c0 4.7773 0.085938 9.5508 0.23828 14.305-26.113-0.86328-47.113-22.332-47.113-48.66zm1007-106.73h-3.5625c-15.238-100.62-62.16-193.66-135.84-267.35-89.352-89.363-207.19-139.32-332.45-141.18-2.3398-0.18359-4.9453-0.097656-7.2969-0.097656-127.98 0-248.62 50.172-339.74 141.27-73.695 73.703-120.58 166.74-135.82 267.36h-3.5625c-58.859 0-106.75 47.879-106.75 106.74 0 58.871 47.891 106.77 106.75 106.77h3.5625c15.238 100.61 62.125 193.63 135.82 267.31 91.125 91.125 211.79 141.29 339.74 141.29 127.98 0 248.64-50.16 339.74-141.28 73.691-73.691 120.61-166.71 135.84-267.31h3.5625c58.836 0 106.74-47.891 106.74-106.77-0.007812-58.867-47.898-106.75-106.73-106.75z" fill="#425a7d" fill-rule="evenodd"/>
</svg>
