<?xml version="1.0" encoding="UTF-8"?>
<svg width="1200pt" height="1200pt" version="1.1" viewBox="0 0 1200 1200" xmlns="http://www.w3.org/2000/svg">
 <g fill="#425a7d" fill-rule="evenodd">
  <path d="m860.59 1050 1.9141 0.039062 1.6133-0.14844c7.1641-0.89844 35.887-6.4141 35.887-37.352 0-186.41-151.09-337.5-337.5-337.5h-75c-186.41 0-337.5 151.09-337.5 337.5 0 0.78906 0.039062 1.5391 0.074219 2.2891 0.5625 12.188 5.7734 20.137 12.113 25.352 6.6758 6.1484 15.562 9.8633 25.312 9.8633 0 0 37.5-2.1367 37.5-37.5 0-144.98 117.52-262.5 262.5-262.5h75c144.98 0 262.5 117.52 262.5 262.5 0 0.78906 0.039062 1.5391 0.074219 2.2891 0.5625 12.188 5.7734 20.137 12.113 25.352 6.2266 5.7383 14.398 9.375 23.398 9.8242z"/>
  <path d="m525 150c-165.56 0-300 134.44-300 300s134.44 300 300 300 300-134.44 300-300-134.44-300-300-300zm0 75c124.16 0 225 100.84 225 225s-100.84 225-225 225-225-100.84-225-225 100.84-225 225-225z"/>
  <path d="m1010.6 1012.5 1.9141 0.039062 1.6133-0.14844c7.1641-0.89844 35.887-6.4141 35.887-37.352 0-152.14-100.69-280.76-239.02-322.91-19.801-6.0391-40.801 5.1758-46.801 24.977-6.0391 19.801 5.1367 40.762 24.938 46.801 107.59 32.773 185.89 132.82 185.89 251.14 0 0.78906 0.039062 1.5391 0.074219 2.2891 0.5625 12.188 5.7734 20.137 12.113 25.352 6.2266 5.7383 14.398 9.375 23.398 9.8242z"/>
  <path d="m824.21 296.85c66.227 28.949 112.54 95.062 112.54 171.9 0 88.988-62.102 163.57-145.27 182.74-20.176 4.6484-32.773 24.789-28.125 44.961 4.6484 20.137 24.789 32.773 44.961 28.125 116.48-26.852 203.44-131.25 203.44-255.82 0-107.55-64.801-200.06-157.46-240.6-18.977-8.2891-41.102 0.375-49.387 19.312-8.2891 18.977 0.375 41.102 19.312 49.387z"/>
 </g>
</svg>
