<?xml version="1.0" encoding="UTF-8"?>
<svg width="1200pt" height="1200pt" version="1.1" viewBox="0 0 1200 1200" xmlns="http://www.w3.org/2000/svg">
 <path d="m637.5 189.38v-76.875h37.5c13.398 0 25.777-7.1484 32.477-18.75 6.6992-11.602 6.6992-25.898 0-37.5-6.6992-11.602-19.078-18.75-32.477-18.75h-150c-13.398 0-25.777 7.1484-32.477 18.75-6.6992 11.602-6.6992 25.898 0 37.5 6.6992 11.602 19.078 18.75 32.477 18.75h37.5v76.875c-125.67 9.6953-242.7 67.688-326.54 161.81-83.836 94.121-127.95 217.05-123.11 343.01 4.8516 125.95 58.301 245.12 149.12 332.52 90.824 87.395 211.97 136.21 338.02 136.21s247.19-48.82 338.02-136.21c90.824-87.395 144.27-206.57 149.12-332.52 4.8477-125.95-39.27-248.89-123.11-343.01-83.832-94.125-200.86-152.12-326.54-161.81zm-37.5 898.12c-109.4 0-214.32-43.461-291.68-120.82-77.359-77.355-120.82-182.28-120.82-291.68s43.461-214.32 120.82-291.68c77.355-77.359 182.28-120.82 291.68-120.82s214.32 43.461 291.68 120.82c77.359 77.355 120.82 182.28 120.82 291.68s-43.461 214.32-120.82 291.68c-77.355 77.359-182.28 120.82-291.68 120.82zm-476.62-723.38c-7.0977-7.043-11.094-16.625-11.094-26.625s3.9961-19.582 11.094-26.625l75-75c9.5117-9.5117 23.375-13.227 36.371-9.7461 12.992 3.4805 23.145 13.633 26.625 26.625 3.4805 12.996-0.23438 26.859-9.7461 36.371l-75 75c-7.043 7.0977-16.625 11.094-26.625 11.094s-19.582-3.9961-26.625-11.094zm825-75c-9.5117-9.5117-13.227-23.375-9.7461-36.371 3.4805-12.992 13.633-23.145 26.625-26.625 12.996-3.4805 26.859 0.23438 36.371 9.7461l75 75c7.0977 7.043 11.094 16.625 11.094 26.625s-3.9961 19.582-11.094 26.625c-7.043 7.0977-16.625 11.094-26.625 11.094s-19.582-3.9961-26.625-11.094zm-205.88 513.38c5.9688 7.957 8.5312 17.957 7.125 27.805-1.4102 9.8438-6.668 18.727-14.625 24.695-6.4922 4.8672-14.387 7.5-22.5 7.5-11.805 0-22.918-5.5586-30-15l-112.5-150c-4.8672-6.4922-7.5-14.387-7.5-22.5v-262.5c0-13.398 7.1484-25.777 18.75-32.477 11.602-6.6992 25.898-6.6992 37.5 0 11.602 6.6992 18.75 19.078 18.75 32.477v250.12z" fill="#425a7d"/>
</svg>
