<?xml version="1.0" encoding="UTF-8"?>
<svg width="1200pt" height="1200pt" version="1.1" viewBox="0 0 1200 1200" xmlns="http://www.w3.org/2000/svg">
 <g fill="#425a7d">
  <path d="m933.07 257.93h-666.14c-57.398 0-104.09-46.695-104.09-104.09v-3.5859c0-57.398 46.691-104.09 104.09-104.09h666.14c57.398 0 104.09 46.695 104.09 104.09v3.582c-0.003907 57.402-46.695 104.1-104.1 104.1zm-666.14-165.62c-31.957 0-57.941 25.984-57.941 57.941v3.582c0 31.957 25.984 57.941 57.941 57.941h666.14c31.957 0 57.941-25.984 57.941-57.941l-0.003906-3.5859c0-31.953-25.984-57.938-57.941-57.938z"/>
  <path d="m705.89 427.58h-211.77l-0.003907-215.81h211.77zm-165.62-46.156h119.46v-123.5h-119.46z"/>
  <path d="m975.78 1153.8h-751.55c-30.289 0-59.203-13.004-79.281-35.695-20.078-22.672-29.5-52.938-25.828-83.023l68.285-560.61c6.4688-53.074 51.652-93.098 105.11-93.098h614.98c53.457 0 98.641 40.023 105.11 93.098l68.285 560.61c3.6719 30.086-5.7461 60.352-25.828 83.023-20.078 22.695-48.992 35.699-79.281 35.699zm-683.27-726.27c-30.152 0-55.641 22.582-59.316 52.531l-68.285 560.61c-2.0508 16.969 3.2461 34.051 14.582 46.828 11.336 12.801 27.652 20.148 44.734 20.148h751.55c17.082 0 33.398-7.3477 44.734-20.148 11.336-12.777 16.633-29.859 14.582-46.828l-68.285-560.61c-3.6719-29.949-29.16-52.531-59.316-52.531z"/>
  <path d="m599.99 1053c-157.32 0-285.33-128-285.33-285.33s128-285.33 285.33-285.33 285.33 128 285.33 285.33-128 285.33-285.33 285.33zm0-524.5c-131.88 0-239.18 107.29-239.18 239.18s107.29 239.18 239.18 239.18c131.88 0 239.18-107.29 239.18-239.18s-107.29-239.18-239.18-239.18z"/>
  <path d="m599.99 845.91c-43.156 0-78.27-35.109-78.27-78.289s35.109-78.289 78.27-78.289c43.18 0 78.289 35.109 78.289 78.289 0 43.176-35.109 78.289-78.289 78.289zm0-110.43c-17.715 0-32.113 14.422-32.113 32.137s14.402 32.137 32.113 32.137c17.715 0 32.137-14.422 32.137-32.137s-14.422-32.137-32.137-32.137z"/>
  <path d="m599.99 735.49c-12.754 0-23.078-10.32-23.078-23.078v-106.39c0-12.754 10.32-23.078 23.078-23.078 12.754 0 23.078 10.32 23.078 23.078v106.39c0 12.754-10.32 23.078-23.078 23.078z"/>
 </g>
</svg>
